<?xml version="1.0" encoding="UTF-8" standalone="no"?>
<!-- Created with Inkscape (http://www.inkscape.org/) -->

<svg
   xmlns:dc="http://purl.org/dc/elements/1.1/"
   xmlns:cc="http://creativecommons.org/ns#"
   xmlns:rdf="http://www.w3.org/1999/02/22-rdf-syntax-ns#"
   xmlns:svg="http://www.w3.org/2000/svg"
   xmlns="http://www.w3.org/2000/svg"
   xmlns:sodipodi="http://sodipodi.sourceforge.net/DTD/sodipodi-0.dtd"
   xmlns:inkscape="http://www.inkscape.org/namespaces/inkscape"
   width="186.99652"
   height="188.51926"
   id="svg3887"
   version="1.1"
   inkscape:version="0.48.4 r9939"
   sodipodi:docname="icon.svg">
  <defs
     id="defs3889" />
  <sodipodi:namedview
     id="base"
     pagecolor="#ffffff"
     bordercolor="#666666"
     borderopacity="1.0"
     inkscape:pageopacity="0.0"
     inkscape:pageshadow="2"
     inkscape:zoom="1.4"
     inkscape:cx="442.82202"
     inkscape:cy="72.911685"
     inkscape:document-units="px"
     inkscape:current-layer="layer1"
     showgrid="false"
     inkscape:window-width="1855"
     inkscape:window-height="1056"
     inkscape:window-x="65"
     inkscape:window-y="24"
     inkscape:window-maximized="1"
     fit-margin-top="0"
     fit-margin-left="0"
     fit-margin-right="0"
     fit-margin-bottom="0" />
  <metadata
     id="metadata3892">
    <rdf:RDF>
      <cc:Work
         rdf:about="">
        <dc:format>image/svg+xml</dc:format>
        <dc:type
           rdf:resource="http://purl.org/dc/dcmitype/StillImage" />
        <dc:title></dc:title>
      </cc:Work>
    </rdf:RDF>
  </metadata>
  <g
     inkscape:label="Layer 1"
     inkscape:groupmode="layer"
     id="layer1"
     transform="translate(-242.35866,-445.36109)">
    <path
       inkscape:connector-curvature="0"
       id="path398"
       style="fill:#f44336;fill-opacity:1;fill-rule:evenodd;stroke:none"
       d="m 349.18759,448.76905 c 6.8175,5.66625 13.3525,11.11 19.6575,16.34875 6.0575,5.035 11.93125,9.9225 17.57375,14.61875 6.43125,5.3525 14.9575,17.80375 19.16625,27.875 3.54625,8.4875 7.0925,16.96875 10.62625,25.41875 3.54625,8.47625 7.085,16.9225 10.60375,25.345 4.1725,9.98125 3.115,15.345 -2.51375,11.86375 -4.93,-3.05 -10.0625,-6.2275 -15.35,-9.5 -5.5125,-3.4125 -11.235,-6.9675 -17.17125,-10.6425 -7.3475,-4.5475 -17.75125,-18.30375 -22.83375,-30.385 -4.3025,-10.2275 -8.61125,-20.48125 -12.9325,-30.745 -4.32625,-10.27625 -8.66625,-20.56875 -13.0175,-30.895 -5.15124,-12.2225 -2.20874,-16.285 6.19125,-9.3025"
       inkscape:export-filename="/home/icoloma/workspace/twitter-roulette/src/icon16.png"
       inkscape:export-xdpi="7.6384759"
       inkscape:export-ydpi="7.6384759" />
    <g
       id="g3118"
       inkscape:export-filename="/home/icoloma/workspace/twitter-roulette/src/icon16.png"
       inkscape:export-xdpi="7.6384759"
       inkscape:export-ydpi="7.6384759">
      <path
         inkscape:export-ydpi="23.1"
         inkscape:export-xdpi="23.1"
         inkscape:export-filename="/home/icoloma/workspace/twitter-roulette/src/icon48.png"
         d="m 362.32384,470.9303 c 4.0175,3.2075 9.1375,10.4725 11.595,16.305 2.45875,5.83125 1.41125,8.24625 -2.49125,5.29375 -3.90125,-2.95 -9.30625,-10.38875 -11.8775,-16.47875 -2.57125,-6.09 -1.2425,-8.32875 2.77375,-5.12"
         style="fill:#ffffff;fill-opacity:1;fill-rule:evenodd;stroke:none"
         id="path400"
         inkscape:connector-curvature="0" />
      <path
         inkscape:export-ydpi="23.1"
         inkscape:export-xdpi="23.1"
         inkscape:export-filename="/home/icoloma/workspace/twitter-roulette/src/icon48.png"
         d="m 388.71009,492.12405 c 3.4225,2.73625 7.925,9.26375 10.17875,14.6475 2.25375,5.38625 1.49125,7.77125 -1.83125,5.25625 -3.32375,-2.515 -8.045,-9.17125 -10.39625,-14.7775 -2.35125,-5.60625 -1.3725,-7.8625 2.04875,-5.12625"
         style="fill:#ffffff;fill-opacity:1;fill-rule:evenodd;stroke:none"
         id="path402"
         inkscape:connector-curvature="0" />
      <path
         inkscape:export-ydpi="23.1"
         inkscape:export-xdpi="23.1"
         inkscape:export-filename="/home/icoloma/workspace/twitter-roulette/src/icon48.png"
         d="m 381.54384,516.3803 c 3.77,2.6575 8.65375,9.3975 11.08,15.16875 2.42625,5.76875 1.55375,8.56875 -2.1025,6.155 -3.65625,-2.4125 -8.82625,-9.34 -11.365,-15.355 -2.53625,-6.015 -1.38125,-8.625 2.3875,-5.96875"
         style="fill:#ffffff;fill-opacity:1;fill-rule:evenodd;stroke:none"
         id="path404"
         inkscape:connector-curvature="0" />
      <path
         inkscape:export-ydpi="23.1"
         inkscape:export-xdpi="23.1"
         inkscape:export-filename="/home/icoloma/workspace/twitter-roulette/src/icon48.png"
         d="m 406.29509,533.9703 c 3.215,2.27125 7.5275,8.37 9.7475,13.68125 2.22,5.31125 1.61,8.03625 -1.50875,5.98125 -3.12125,-2.05625 -7.64375,-8.28125 -9.96875,-13.82125 -2.32375,-5.54125 -1.48625,-8.1125 1.73,-5.84125"
         style="fill:#ffffff;fill-opacity:1;fill-rule:evenodd;stroke:none"
         id="path406"
         inkscape:connector-curvature="0" />
    </g>
    <path
       inkscape:connector-curvature="0"
       id="path408"
       style="fill:#f44336;fill-opacity:1;fill-rule:evenodd;stroke:none"
       d="m 254.55135,500.17905 c 7.58,-6.50375 15.3325,-13.155 23.24375,-19.9425 8.0925,-6.94125 16.3675,-14.04125 24.84,-21.31 10.26875,-8.81 22.175,-8.91125 26.30875,0.28625 3.6125,8.04 7.34625,16.3425 11.2,24.915 3.98124,8.85375 8.10374,18.02375 12.36499,27.5 5.23625,11.6475 -1.0525,29.07375 -13.78249,38.03125 -10.44375,7.35 -20.61375,14.50625 -30.52,21.4775 -9.64375,6.78625 -19.06625,13.41625 -28.23375,19.8675 -10.575,7.44125 -21.36375,3.62875 -24.18875,-7.9 -2.30875,-9.41875 -4.5475,-18.5675 -6.7225,-27.44125 -2.11125,-8.62125 -4.16125,-16.99875 -6.15875,-25.14875 -2.295,-9.36375 2.8775,-22.81 11.64875,-30.335"
       inkscape:export-filename="/home/icoloma/workspace/twitter-roulette/src/icon16.png"
       inkscape:export-xdpi="7.6384759"
       inkscape:export-ydpi="7.6384759" />
    <g
       id="g3110"
       inkscape:export-filename="/home/icoloma/workspace/twitter-roulette/src/icon16.png"
       inkscape:export-xdpi="7.6384759"
       inkscape:export-ydpi="7.6384759">
      <path
         inkscape:export-ydpi="23.1"
         inkscape:export-xdpi="23.1"
         inkscape:export-filename="/home/icoloma/workspace/twitter-roulette/src/icon48.png"
         d="m 264.69635,504.45405 c 4.5925,-3.855 9.57375,-3.35 11.0625,1.3775 1.4875,4.72875 -1.2275,11.9125 -5.9925,15.775 -4.76375,3.8625 -9.62375,2.94125 -10.93875,-1.795 -1.315,-4.7375 1.27875,-11.50375 5.86875,-15.3575"
         style="fill:#ffffff;fill-opacity:1;fill-rule:evenodd;stroke:none"
         id="path410"
         inkscape:connector-curvature="0" />
      <path
         inkscape:export-ydpi="23.1"
         inkscape:export-xdpi="23.1"
         inkscape:export-filename="/home/icoloma/workspace/twitter-roulette/src/icon48.png"
         d="m 298.8601,475.9078 c 5.0375,-4.22875 10.71375,-4.0775 12.59875,0.62875 1.88375,4.70625 -0.91125,12.20375 -6.1625,16.45 -5.25,4.2475 -10.80375,3.6425 -12.4775,-1.08625 -1.67375,-4.7275 1.00375,-11.76625 6.04125,-15.9925"
         style="fill:#ffffff;fill-opacity:1;fill-rule:evenodd;stroke:none"
         id="path412"
         inkscape:connector-curvature="0" />
      <path
         inkscape:export-ydpi="23.1"
         inkscape:export-xdpi="23.1"
         inkscape:export-filename="/home/icoloma/workspace/twitter-roulette/src/icon48.png"
         d="m 271.47385,527.1428 c 4.82625,-3.865 10.11125,-3.0675 11.73625,2.07625 1.625,5.14375 -1.1975,12.68875 -6.2175,16.55125 -5.01875,3.8625 -10.17875,2.58375 -11.60875,-2.555 -1.43,-5.14 1.2625,-12.20875 6.09,-16.0725"
         style="fill:#ffffff;fill-opacity:1;fill-rule:evenodd;stroke:none"
         id="path414"
         inkscape:connector-curvature="0" />
      <path
         inkscape:export-ydpi="23.1"
         inkscape:export-xdpi="23.1"
         inkscape:export-filename="/home/icoloma/workspace/twitter-roulette/src/icon48.png"
         d="m 307.4526,498.4978 c 5.31625,-4.2525 11.3625,-3.7775 13.42625,1.35 2.0625,5.1275 -0.8375,13.0075 -6.39,17.27625 -5.5525,4.26875 -11.46125,3.295 -13.28875,-1.8425 -1.8275,-5.13875 0.93875,-12.53125 6.2525,-16.78375"
         style="fill:#ffffff;fill-opacity:1;fill-rule:evenodd;stroke:none"
         id="path416"
         inkscape:connector-curvature="0" />
      <path
         inkscape:export-ydpi="23.1"
         inkscape:export-xdpi="23.1"
         inkscape:export-filename="/home/icoloma/workspace/twitter-roulette/src/icon48.png"
         d="m 278.90135,551.9578 c 5.08625,-3.85625 10.71875,-2.6975 12.48875,2.91625 1.77,5.615 -1.15625,13.5475 -6.45875,17.38625 -5.30375,3.83875 -10.79625,2.16125 -12.35,-3.43875 -1.555,-5.60125 1.235,-13.0075 6.32,-16.86375"
         style="fill:#ffffff;fill-opacity:1;fill-rule:evenodd;stroke:none"
         id="path418"
         inkscape:connector-curvature="0" />
      <path
         inkscape:export-ydpi="23.1"
         inkscape:export-xdpi="23.1"
         inkscape:export-filename="/home/icoloma/workspace/twitter-roulette/src/icon48.png"
         d="m 316.91135,523.3128 c 5.64125,-4.2725 12.10125,-3.45625 14.36375,2.17625 2.2625,5.6325 -0.7575,13.93625 -6.6525,18.2075 -5.89375,4.26875 -12.21,2.89 -14.21625,-2.73625 -2.00625,-5.62625 0.86625,-13.37375 6.505,-17.6475"
         style="fill:#ffffff;fill-opacity:1;fill-rule:evenodd;stroke:none"
         id="path420"
         inkscape:connector-curvature="0" />
    </g>
    <path
       inkscape:connector-curvature="0"
       id="path422"
       style="fill:#f44336;fill-opacity:1;fill-rule:evenodd;stroke:none"
       d="m 276.31135,604.30155 c 8.13625,-5.725 16.79875,-11.82 26.0375,-18.3225 9.84625,-6.92875 20.41125,-14.36375 31.755,-22.34625 14.52124,-10.21875 35.46874,-12.855 44.42249,-5.66875 6.94,5.57 13.35875,10.72125 19.3125,15.5 5.53625,4.44375 10.705,8.59375 15.5425,12.47625 5.33,4.2775 -1.1625,12.60625 -13.3325,18.4325 -9.7325,4.66 -18.99,9.09125 -27.7875,13.30375 -8.4,4.02375 -16.405,7.8575 -24.06875,11.5275 -8.62624,4.13 -20.62249,5.82625 -27.41499,3.8575 -6.05375,-1.755 -12.4325,-3.60625 -19.145,-5.55125 -7.08625,-2.05125 -14.5875,-4.22625 -22.52625,-6.52625 -10.01125,-2.9025 -11.83125,-10.3225 -2.795,-16.6825"
       inkscape:export-filename="/home/icoloma/workspace/twitter-roulette/src/icon16.png"
       inkscape:export-xdpi="7.6384759"
       inkscape:export-ydpi="7.6384759" />
    <g
       id="g3124"
       inkscape:export-filename="/home/icoloma/workspace/twitter-roulette/src/icon16.png"
       inkscape:export-xdpi="7.6384759"
       inkscape:export-ydpi="7.6384759">
      <path
         inkscape:export-ydpi="23.1"
         inkscape:export-xdpi="23.1"
         inkscape:export-filename="/home/icoloma/workspace/twitter-roulette/src/icon48.png"
         d="m 335.5076,601.2653 c 5.41375,-3.15875 13.42624,-4.2225 17.23499,-2.31625 3.81,1.905 2.105,5.80375 -3.185,8.665 -5.29,2.8625 -12.27999,3.81375 -16.21124,2.21 -3.93125,-1.60375 -3.2525,-5.4 2.16125,-8.55875"
         style="fill:#ffffff;fill-opacity:1;fill-rule:evenodd;stroke:none"
         id="path424"
         inkscape:connector-curvature="0" />
      <path
         inkscape:export-ydpi="23.1"
         inkscape:export-xdpi="23.1"
         inkscape:export-filename="/home/icoloma/workspace/twitter-roulette/src/icon48.png"
         d="m 340.1626,580.2578 c 6.31374,-4.05 15.56249,-5.25625 19.77624,-2.59125 4.21375,2.665 1.97375,7.79 -4.165,11.39625 -6.14,3.60625 -14.04499,4.67875 -18.43374,2.4575 -4.38875,-2.21875 -3.49125,-7.2125 2.8225,-11.2625"
         style="fill:#ffffff;fill-opacity:1;fill-rule:evenodd;stroke:none"
         id="path426"
         inkscape:connector-curvature="0" />
      <path
         inkscape:export-ydpi="23.1"
         inkscape:export-xdpi="23.1"
         inkscape:export-filename="/home/icoloma/workspace/twitter-roulette/src/icon48.png"
         d="m 333.09885,617.4828 c 4.74,-2.53875 11.80499,-3.515 15.25749,-2.11125 3.45125,1.4025 2.07375,4.46375 -2.5825,6.8025 -4.65749,2.34 -10.90999,3.2175 -14.44749,2.0175 -3.53875,-1.2 -2.9675,-4.1725 1.7725,-6.70875"
         style="fill:#ffffff;fill-opacity:1;fill-rule:evenodd;stroke:none"
         id="path428"
         inkscape:connector-curvature="0" />
    </g>
  </g>
</svg>
