<?xml version="1.0" encoding="UTF-8" standalone="no"?>
<!-- Created with Inkscape (http://www.inkscape.org/) -->

<svg
   xmlns:dc="http://purl.org/dc/elements/1.1/"
   xmlns:cc="http://creativecommons.org/ns#"
   xmlns:rdf="http://www.w3.org/1999/02/22-rdf-syntax-ns#"
   xmlns:svg="http://www.w3.org/2000/svg"
   xmlns="http://www.w3.org/2000/svg"
   xmlns:sodipodi="http://sodipodi.sourceforge.net/DTD/sodipodi-0.dtd"
   xmlns:inkscape="http://www.inkscape.org/namespaces/inkscape"
   width="128.07486"
   height="127.93975"
   id="svg3887"
   version="1.1"
   inkscape:version="0.48.4 r9939"
   sodipodi:docname="icon-128.svg"
   inkscape:export-filename="/home/icoloma/workspace/twitter-roulette/src/icon128.png"
   inkscape:export-xdpi="119.91"
   inkscape:export-ydpi="119.91">
  <defs
     id="defs3889" />
  <sodipodi:namedview
     id="base"
     pagecolor="#ffffff"
     bordercolor="#666666"
     borderopacity="1.0"
     inkscape:pageopacity="0.0"
     inkscape:pageshadow="2"
     inkscape:zoom="2.8"
     inkscape:cx="168.69437"
     inkscape:cy="130.11611"
     inkscape:document-units="px"
     inkscape:current-layer="layer1"
     showgrid="false"
     inkscape:window-width="1855"
     inkscape:window-height="1056"
     inkscape:window-x="65"
     inkscape:window-y="24"
     inkscape:window-maximized="1"
     fit-margin-top="16"
     fit-margin-left="16"
     fit-margin-right="16"
     fit-margin-bottom="16" />
  <metadata
     id="metadata3892">
    <rdf:RDF>
      <cc:Work
         rdf:about="">
        <dc:format>image/svg+xml</dc:format>
        <dc:type
           rdf:resource="http://purl.org/dc/dcmitype/StillImage" />
        <dc:title></dc:title>
      </cc:Work>
    </rdf:RDF>
  </metadata>
  <g
     inkscape:label="Layer 1"
     inkscape:groupmode="layer"
     id="layer1"
     transform="translate(-226.35865,-520.1549)">
    <path
       inkscape:connector-curvature="0"
       id="path398"
       style="fill:#f44336;fill-opacity:1;fill-rule:evenodd;stroke:none"
       d="m 297.2451,537.88925 c 3.50269,2.88362 6.86023,5.65401 10.09961,8.32007 3.11222,2.56238 6.13003,5.04969 9.02902,7.43967 3.30424,2.72395 7.68484,9.06055 9.84721,14.18593 1.82199,4.31939 3.64398,8.6356 5.45955,12.9359 1.82199,4.31367 3.64012,8.61207 5.44798,12.89839 2.14374,5.07958 1.60041,7.80925 -1.29152,6.0376 -2.53293,-1.55218 -5.16989,-3.16926 -7.8865,-4.83467 -2.8322,-1.73666 -5.77231,-3.54585 -8.82222,-5.41609 -3.775,-2.31428 -9.12022,-9.315 -11.7315,-15.4633 -2.21053,-5.2049 -4.42428,-10.42316 -6.64444,-15.6465 -2.22274,-5.22971 -4.45254,-10.46769 -6.68812,-15.72284 -2.6466,-6.22018 -1.13481,-8.28764 3.18093,-4.73416"
       inkscape:export-filename="/home/icoloma/workspace/twitter-roulette/src/icon128.png"
       inkscape:export-xdpi="61.610001"
       inkscape:export-ydpi="61.610001" />
    <g
       id="g3118"
       inkscape:export-filename="/home/icoloma/workspace/twitter-roulette/src/icon128.png"
       inkscape:export-xdpi="61.610001"
       inkscape:export-ydpi="61.610001"
       transform="matrix(0.51377883,0,0,0.50891216,117.8399,309.50522)">
      <path
         inkscape:export-ydpi="23.1"
         inkscape:export-xdpi="23.1"
         inkscape:export-filename="/home/icoloma/workspace/twitter-roulette/src/icon48.png"
         d="m 362.32384,470.9303 c 4.0175,3.2075 9.1375,10.4725 11.595,16.305 2.45875,5.83125 1.41125,8.24625 -2.49125,5.29375 -3.90125,-2.95 -9.30625,-10.38875 -11.8775,-16.47875 -2.57125,-6.09 -1.2425,-8.32875 2.77375,-5.12"
         style="fill:#ffffff;fill-opacity:1;fill-rule:evenodd;stroke:none"
         id="path400"
         inkscape:connector-curvature="0" />
      <path
         inkscape:export-ydpi="23.1"
         inkscape:export-xdpi="23.1"
         inkscape:export-filename="/home/icoloma/workspace/twitter-roulette/src/icon48.png"
         d="m 388.71009,492.12405 c 3.4225,2.73625 7.925,9.26375 10.17875,14.6475 2.25375,5.38625 1.49125,7.77125 -1.83125,5.25625 -3.32375,-2.515 -8.045,-9.17125 -10.39625,-14.7775 -2.35125,-5.60625 -1.3725,-7.8625 2.04875,-5.12625"
         style="fill:#ffffff;fill-opacity:1;fill-rule:evenodd;stroke:none"
         id="path402"
         inkscape:connector-curvature="0" />
      <path
         inkscape:export-ydpi="23.1"
         inkscape:export-xdpi="23.1"
         inkscape:export-filename="/home/icoloma/workspace/twitter-roulette/src/icon48.png"
         d="m 381.54384,516.3803 c 3.77,2.6575 8.65375,9.3975 11.08,15.16875 2.42625,5.76875 1.55375,8.56875 -2.1025,6.155 -3.65625,-2.4125 -8.82625,-9.34 -11.365,-15.355 -2.53625,-6.015 -1.38125,-8.625 2.3875,-5.96875"
         style="fill:#ffffff;fill-opacity:1;fill-rule:evenodd;stroke:none"
         id="path404"
         inkscape:connector-curvature="0" />
      <path
         inkscape:export-ydpi="23.1"
         inkscape:export-xdpi="23.1"
         inkscape:export-filename="/home/icoloma/workspace/twitter-roulette/src/icon48.png"
         d="m 406.29509,533.9703 c 3.215,2.27125 7.5275,8.37 9.7475,13.68125 2.22,5.31125 1.61,8.03625 -1.50875,5.98125 -3.12125,-2.05625 -7.64375,-8.28125 -9.96875,-13.82125 -2.32375,-5.54125 -1.48625,-8.1125 1.73,-5.84125"
         style="fill:#ffffff;fill-opacity:1;fill-rule:evenodd;stroke:none"
         id="path406"
         inkscape:connector-curvature="0" />
    </g>
    <path
       inkscape:connector-curvature="0"
       id="path408"
       style="fill:#f44336;fill-opacity:1;fill-rule:evenodd;stroke:none"
       d="m 248.623,564.05243 c 3.89445,-3.30984 7.87752,-6.69474 11.94215,-10.14899 4.15775,-3.53248 8.40928,-7.14576 12.76227,-10.84492 5.27587,-4.48351 11.39305,-4.53503 13.51687,0.14568 1.85603,4.09166 3.77435,8.3169 5.75433,12.67954 2.04547,4.50579 4.16353,9.17252 6.35287,13.99509 2.69027,5.92756 -0.54075,14.79598 -7.08116,19.35456 -5.36577,3.74051 -10.5909,7.38241 -15.68053,10.93017 -4.95474,3.4536 -9.79583,6.82769 -14.5059,10.11081 -5.43321,3.78694 -10.97624,1.84671 -12.42767,-4.02041 -1.18618,-4.79332 -2.33641,-9.44923 -3.45388,-13.96519 -1.08471,-4.38745 -2.13795,-8.65086 -3.16423,-12.7985 -1.17912,-4.76533 1.4784,-11.60828 5.98488,-15.43784"
       inkscape:export-filename="/home/icoloma/workspace/twitter-roulette/src/icon128.png"
       inkscape:export-xdpi="61.610001"
       inkscape:export-ydpi="61.610001" />
    <path
       inkscape:connector-curvature="0"
       id="path422"
       style="fill:#f44336;fill-opacity:1;fill-rule:evenodd;stroke:none"
       d="m 259.80283,617.04164 c 4.18023,-2.91352 8.63085,-6.01535 13.37752,-9.32456 5.05879,-3.52612 10.48686,-7.30988 16.31504,-11.37226 7.46072,-5.20045 18.2231,-6.54207 22.82335,-2.88491 3.56561,2.83465 6.86344,5.45618 9.92234,7.88814 2.84441,2.26148 5.5,4.37347 7.98542,6.34931 2.73844,2.17687 -0.59728,6.41549 -6.84997,9.38053 -5.00034,2.37153 -9.75666,4.62665 -14.27662,6.77044 -4.31575,2.04774 -8.42854,3.99878 -12.36602,5.86649 -4.43197,2.1018 -10.5954,2.96505 -14.08524,1.96313 -3.11029,-0.89314 -6.38755,-1.83527 -9.8363,-2.82511 -3.64076,-1.0439 -7.49474,-2.15079 -11.5735,-3.32128 -5.14357,-1.47712 -6.07865,-5.25325 -1.43602,-8.48992"
       inkscape:export-filename="/home/icoloma/workspace/twitter-roulette/src/icon128.png"
       inkscape:export-xdpi="61.610001"
       inkscape:export-ydpi="61.610001" />
    <g
       id="g3124"
       inkscape:export-filename="/home/icoloma/workspace/twitter-roulette/src/icon128.png"
       inkscape:export-xdpi="61.610001"
       inkscape:export-ydpi="61.610001"
       transform="matrix(0.51377883,0,0,0.50891216,117.8399,309.50522)">
      <path
         inkscape:export-ydpi="23.1"
         inkscape:export-xdpi="23.1"
         inkscape:export-filename="/home/icoloma/workspace/twitter-roulette/src/icon48.png"
         d="m 335.5076,601.2653 c 5.41375,-3.15875 13.42624,-4.2225 17.23499,-2.31625 3.81,1.905 2.105,5.80375 -3.185,8.665 -5.29,2.8625 -12.27999,3.81375 -16.21124,2.21 -3.93125,-1.60375 -3.2525,-5.4 2.16125,-8.55875"
         style="fill:#ffffff;fill-opacity:1;fill-rule:evenodd;stroke:none"
         id="path424"
         inkscape:connector-curvature="0" />
      <path
         inkscape:export-ydpi="23.1"
         inkscape:export-xdpi="23.1"
         inkscape:export-filename="/home/icoloma/workspace/twitter-roulette/src/icon48.png"
         d="m 340.1626,580.2578 c 6.31374,-4.05 15.56249,-5.25625 19.77624,-2.59125 4.21375,2.665 1.97375,7.79 -4.165,11.39625 -6.14,3.60625 -14.04499,4.67875 -18.43374,2.4575 -4.38875,-2.21875 -3.49125,-7.2125 2.8225,-11.2625"
         style="fill:#ffffff;fill-opacity:1;fill-rule:evenodd;stroke:none"
         id="path426"
         inkscape:connector-curvature="0" />
      <path
         inkscape:export-ydpi="23.1"
         inkscape:export-xdpi="23.1"
         inkscape:export-filename="/home/icoloma/workspace/twitter-roulette/src/icon48.png"
         d="m 333.09885,617.4828 c 4.74,-2.53875 11.80499,-3.515 15.25749,-2.11125 3.45125,1.4025 2.07375,4.46375 -2.5825,6.8025 -4.65749,2.34 -10.90999,3.2175 -14.44749,2.0175 -3.53875,-1.2 -2.9675,-4.1725 1.7725,-6.70875"
         style="fill:#ffffff;fill-opacity:1;fill-rule:evenodd;stroke:none"
         id="path428"
         inkscape:connector-curvature="0" />
    </g>
    <g
       id="g12"
       transform="matrix(0.01505613,-0.00412398,-0.00386128,-0.01526536,253.98548,601.85696)"
       style="fill:#ffffff"
       inkscape:export-filename="/home/icoloma/workspace/twitter-roulette/src/icon128.png"
       inkscape:export-xdpi="61.610001"
       inkscape:export-ydpi="61.610001">
      <path
         inkscape:connector-curvature="0"
         d="M 859.797,0 C 543.047,0 248.223,92.8516 0,251.988 c 43.8789,-5.179 88.5273,-7.828 133.801,-7.828 262.781,0 504.629,89.672 696.59,240.102 -245.442,4.527 -452.578,166.687 -523.953,389.527 34.246,-6.551 69.382,-10.059 105.527,-10.059 51.148,0 100.703,6.852 147.769,19.668 -256.589,51.524 -449.929,278.222 -449.929,549.982 0,2.37 0.008,4.71 0.047,7.05 75.628,-42.01 162.113,-67.24 254.054,-70.15 -150.5,100.58 -249.519,272.26 -249.519,466.85 0,102.8 27.652,199.14 75.933,281.98 276.645,-339.34 689.934,-562.64 1156.09,-586.03 -9.56,41.05 -14.53,83.86 -14.53,127.82 0,309.75 251.14,560.88 560.91,560.88 161.32,0 307.09,-68.12 409.41,-177.13 127.76,25.16 247.8,71.84 356.17,136.12 -41.88,-130.98 -130.81,-240.9 -246.62,-310.32 113.46,13.56 221.56,43.71 322.15,88.32 -75.2,-112.48 -170.3,-211.27 -279.88,-290.35 1.08,-24.05 1.62,-48.24 1.62,-72.56 C 2455.64,854.672 1891.48,0 859.797,0"
         style="fill:#ffffff;fill-opacity:1;fill-rule:nonzero;stroke:none"
         id="path14" />
    </g>
  </g>
</svg>
